<?xml version="1.0" encoding="UTF-8" standalone="no"?>
<!DOCTYPE svg PUBLIC "-//W3C//DTD SVG 1.1//EN" "http://www.w3.org/Graphics/SVG/1.1/DTD/svg11.dtd">
<!-- Generated by Microsoft Visio, SVG Export MACVLAN.svg Page-1 -->
<svg xmlns="http://www.w3.org/2000/svg" xmlns:xlink="http://www.w3.org/1999/xlink" xmlns:ev="http://www.w3.org/2001/xml-events"
		xmlns:v="http://schemas.microsoft.com/visio/2003/SVGExtensions/" width="5.62879in" height="3.44273in"
		viewBox="0 0 405.273 247.877" xml:space="preserve" color-interpolation-filters="sRGB" class="st9">
	<v:documentProperties v:langID="1033" v:metric="true" v:viewMarkup="false"/>

	<style type="text/css">
	<![CDATA[
		.st1 {fill:#0078d7;stroke:none;stroke-linecap:butt;stroke-width:0.75}
		.st2 {fill:#0078d7;font-family:Segoe UI;font-size:0.75em}
		.st3 {fill:#0078d7;stroke:none;stroke-linecap:butt;stroke-width:0.6375}
		.st4 {font-size:1em}
		.st5 {stroke:#0078d7;stroke-linecap:round;stroke-linejoin:round;stroke-width:0.75}
		.st6 {fill:none;stroke:#0078d7;stroke-dasharray:0,3.3;stroke-linecap:round;stroke-linejoin:round;stroke-width:1.1}
		.st7 {fill:#ffffff;stroke:none;stroke-linecap:butt;stroke-width:7.2}
		.st8 {fill:#ffffff;stroke:none;stroke-linecap:butt}
		.st9 {fill:none;fill-rule:evenodd;font-size:12px;overflow:visible;stroke-linecap:square;stroke-miterlimit:3}
	]]>
	</style>

	<g v:mID="0" v:index="1" v:groupContext="foregroundPage">
		<title>Page-1</title>
		<v:pageProperties v:drawingScale="0.0393701" v:pageScale="0.0393701" v:drawingUnits="24" v:shadowOffsetX="8.50394"
				v:shadowOffsetY="-8.50394"/>
		<v:layer v:name="Connector" v:index="0"/>
		<g id="group264-1" transform="translate(50.1325,-10.6337)" v:mID="264" v:groupContext="group">
			<title>Sheet.264</title>
			<g id="group209-2" transform="translate(7.99361E-15,-29.9103)" v:mID="209" v:groupContext="group">
				<title>Sheet.209</title>
				<g id="group68-3" transform="translate(7.99361E-15,-47.9734)" v:mID="68" v:groupContext="group">
					<title>Virtual Machine symbol only.68</title>
					<desc>master</desc>
					<g id="shape69-4" v:mID="69" v:groupContext="shape">
						<title>Sheet.69</title>
						<path d="M73.51 175.69 L4.25 175.69 C1.89 175.69 0 177.79 0 180.13 L0 228.42 C0 230.76 1.89 232.83 4.25 232.83
									 L27.97 232.83 C30.52 241.86 27.08 243.15 12.03 243.15 L12.03 247.88 L31.16 247.88 L45.13 247.88
									 L63.19 247.88 L63.19 243.15 C48.15 243.15 46.66 241.86 49.22 232.83 L73.51 232.83 C75.85 232.83
									 78.24 230.76 78.24 228.42 L78.24 180.13 C78.24 177.79 75.85 175.69 73.51 175.69 ZM72.22 181.7
									 L72.22 226.82 L6.02 226.82 L6.02 181.7 L72.41 181.59 L72.22 181.7 Z" class="st1"/>
					</g>
					<g id="group70-6" transform="translate(24.9774,-28.9632)" v:mID="70" v:groupContext="group">
						<title>Sheet.70</title>
						<g id="group71-7" transform="translate(1.24113,-15.9266)" v:mID="71" v:groupContext="group">
							<title>Sheet.71</title>
							<g id="shape72-8" v:mID="72" v:groupContext="shape">
								<title>Sheet.72</title>
								<path d="M24.27 240.7 L12.13 233.7 L0 240.7 L0 240.87 L12.13 247.88 L24.27 240.87 L24.27 240.7 Z"
										class="st1"/>
							</g>
						</g>
						<g id="group73-10" transform="translate(14.6165,1.42109E-13)" v:mID="73" v:groupContext="group">
							<title>Sheet.73</title>
							<g id="shape74-11" v:mID="74" v:groupContext="shape">
								<title>Sheet.74</title>
								<path d="M0 234.03 L0 247.88 L12.14 240.87 L12.14 227.03 L0 234.03 Z" class="st1"/>
							</g>
						</g>
						<g id="group75-13" v:mID="75" v:groupContext="group">
							<title>Sheet.75</title>
							<g id="shape76-14" v:mID="76" v:groupContext="shape">
								<title>Sheet.76</title>
								<path d="M12.14 234.03 L0 227.03 L0 240.87 L12.14 247.88 L12.14 234.03 Z" class="st1"/>
							</g>
						</g>
					</g>
					<g id="shape68-16" v:mID="68" v:groupContext="groupContent">
						<v:textBlock v:margins="rect(0,0,0,0)" v:tabSpace="42.5197" v:verticalAlign="0"/>
						<v:textRect cx="39.1181" cy="297.151" width="178.51" height="72.1905"/>
						<text x="25.6" y="269.16" class="st2" v:langID="2052"><v:paragraph v:horizAlign="1"/><v:tabList/>master</text>					</g>
				</g>
				<g id="group77-18" transform="translate(26.5275,-171.615)" v:mID="77" v:groupContext="group">
					<title>Virtual Network.77</title>
					<desc>eth0 172.16.0.4</desc>
					<g id="shape78-19" v:mID="78" v:groupContext="shape" transform="translate(17.5312,0)">
						<title>Sheet.78</title>
						<path d="M7.65 241.06 L6.12 239.53 L0.83 234.23 L0 235.13 L5.93 241.06 L0 246.98 L0.83 247.88 L6.12 242.59
									 L7.65 241.06 Z" class="st3"/>
					</g>
					<g id="shape79-21" v:mID="79" v:groupContext="shape">
						<title>Sheet.79</title>
						<path d="M0 241.06 L1.53 239.53 L6.82 234.23 L7.65 235.13 L1.72 241.06 L7.65 246.98 L6.82 247.88 L1.53 242.59
									 L0 241.06 Z" class="st3"/>
					</g>
					<g id="shape80-23" v:mID="80" v:groupContext="shape" transform="translate(6.5025,-5.29125)">
						<title>Sheet.80</title>
						<path d="M3.06 246.35 C3.06 247.18 2.36 247.88 1.53 247.88 C0.64 247.88 0 247.18 0 246.35 C0 245.52 0.7 244.82
									 1.53 244.82 C2.36 244.82 3.06 245.45 3.06 246.35 Z" class="st3"/>
					</g>
					<g id="shape81-25" v:mID="81" v:groupContext="shape" transform="translate(11.0925,-5.29125)">
						<title>Sheet.81</title>
						<ellipse cx="1.53" cy="246.347" rx="1.53" ry="1.53" class="st3"/>
					</g>
					<g id="shape82-27" v:mID="82" v:groupContext="shape" transform="translate(15.6825,-5.29125)">
						<title>Sheet.82</title>
						<ellipse cx="1.53" cy="246.347" rx="1.53" ry="1.53" class="st3"/>
					</g>
					<g id="shape77-29" v:mID="77" v:groupContext="groupContent">
						<v:textBlock v:margins="rect(0,0,0,0)" v:tabSpace="42.5197" v:verticalAlign="0"/>
						<v:textRect cx="12.5906" cy="266.087" width="72" height="30.9375"/>
						<text x="3.74" y="258.72" class="st2" v:langID="2052"><v:paragraph v:horizAlign="1"/><v:tabList/>eth0<v:newlineChar/><tspan
									x="-7.32" dy="1.2em" class="st4">172.16.0.4</tspan></text>					</g>
				</g>
				<g id="group154-32" transform="translate(26.5275,0)" v:mID="154" v:groupContext="group">
					<title>Virtual Network</title>
					<desc>eth1</desc>
					<g id="shape155-33" v:mID="155" v:groupContext="shape" transform="translate(17.5312,0)">
						<title>Sheet.155</title>
						<path d="M7.65 241.06 L6.12 239.53 L0.83 234.23 L0 235.13 L5.93 241.06 L0 246.98 L0.83 247.88 L6.12 242.59
									 L7.65 241.06 Z" class="st3"/>
					</g>
					<g id="shape156-35" v:mID="156" v:groupContext="shape">
						<title>Sheet.156</title>
						<path d="M0 241.06 L1.53 239.53 L6.82 234.23 L7.65 235.13 L1.72 241.06 L7.65 246.98 L6.82 247.88 L1.53 242.59
									 L0 241.06 Z" class="st3"/>
					</g>
					<g id="shape157-37" v:mID="157" v:groupContext="shape" transform="translate(6.5025,-5.29125)">
						<title>Sheet.157</title>
						<path d="M3.06 246.35 C3.06 247.18 2.36 247.88 1.53 247.88 C0.64 247.88 0 247.18 0 246.35 C0 245.52 0.7 244.82
									 1.53 244.82 C2.36 244.82 3.06 245.45 3.06 246.35 Z" class="st3"/>
					</g>
					<g id="shape158-39" v:mID="158" v:groupContext="shape" transform="translate(11.0925,-5.29125)">
						<title>Sheet.158</title>
						<ellipse cx="1.53" cy="246.347" rx="1.53" ry="1.53" class="st3"/>
					</g>
					<g id="shape159-41" v:mID="159" v:groupContext="shape" transform="translate(15.6825,-5.29125)">
						<title>Sheet.159</title>
						<ellipse cx="1.53" cy="246.347" rx="1.53" ry="1.53" class="st3"/>
					</g>
					<g id="shape154-43" v:mID="154" v:groupContext="groupContent">
						<v:textBlock v:margins="rect(0,0,0,0)" v:tabSpace="42.5197" v:verticalAlign="0"/>
						<v:textRect cx="12.5906" cy="266.087" width="72" height="30.9375"/>
						<text x="3.74" y="258.72" class="st2" v:langID="2052"><v:paragraph v:horizAlign="1"/><v:tabList/>eth1</text>					</g>
				</g>
				<g id="shape160-45" v:mID="160" v:groupContext="shape" v:layerMember="0"
						transform="translate(1.57874E-13,-84.0687)">
					<title>Dynamic connector</title>
					<path d="M0 247.88 L-5.31 247.88 A5.31496 5.31496 -180 0 0 -10.63 253.19 L-10.63 304.92 A19.9075 19.9075 -180
								 0 0 9.28 324.83 L29.19 324.83" class="st5"/>
				</g>
				<g id="shape161-48" v:mID="161" v:groupContext="shape" v:layerMember="0"
						transform="translate(6.59472E-14,-93.9275)">
					<title>Dynamic connector.161</title>
					<path d="M0 247.88 L-5.31 247.88 A5.31496 5.31496 0 0 1 -10.63 242.56 L-10.63 181.49 A18.124 18.124 0 0 1 7.49
								 163.37 L25.62 163.37" class="st5"/>
				</g>
			</g>
			<g id="group234-51" transform="translate(226.772,-29.9103)" v:mID="234" v:groupContext="group">
				<title>Sheet.234</title>
				<g id="group235-52" transform="translate(7.99361E-15,-47.9734)" v:mID="235" v:groupContext="group">
					<title>Virtual Machine symbol only.68</title>
					<desc>node1</desc>
					<g id="shape236-53" v:mID="236" v:groupContext="shape">
						<title>Sheet.236</title>
						<path d="M73.51 175.69 L4.25 175.69 C1.89 175.69 0 177.79 0 180.13 L0 228.42 C0 230.76 1.89 232.83 4.25 232.83
									 L27.97 232.83 C30.52 241.86 27.08 243.15 12.03 243.15 L12.03 247.88 L31.16 247.88 L45.13 247.88
									 L63.19 247.88 L63.19 243.15 C48.15 243.15 46.66 241.86 49.22 232.83 L73.51 232.83 C75.85 232.83
									 78.24 230.76 78.24 228.42 L78.24 180.13 C78.24 177.79 75.85 175.69 73.51 175.69 ZM72.22 181.7
									 L72.22 226.82 L6.02 226.82 L6.02 181.7 L72.41 181.59 L72.22 181.7 Z" class="st1"/>
					</g>
					<g id="group237-55" transform="translate(24.9774,-28.9632)" v:mID="237" v:groupContext="group">
						<title>Sheet.237</title>
						<g id="group238-56" transform="translate(1.24113,-15.9266)" v:mID="238" v:groupContext="group">
							<title>Sheet.238</title>
							<g id="shape239-57" v:mID="239" v:groupContext="shape">
								<title>Sheet.239</title>
								<path d="M24.27 240.7 L12.13 233.7 L0 240.7 L0 240.87 L12.13 247.88 L24.27 240.87 L24.27 240.7 Z"
										class="st1"/>
							</g>
						</g>
						<g id="group240-59" transform="translate(14.6165,1.42109E-13)" v:mID="240" v:groupContext="group">
							<title>Sheet.240</title>
							<g id="shape241-60" v:mID="241" v:groupContext="shape">
								<title>Sheet.241</title>
								<path d="M0 234.03 L0 247.88 L12.14 240.87 L12.14 227.03 L0 234.03 Z" class="st1"/>
							</g>
						</g>
						<g id="group242-62" v:mID="242" v:groupContext="group">
							<title>Sheet.242</title>
							<g id="shape243-63" v:mID="243" v:groupContext="shape">
								<title>Sheet.243</title>
								<path d="M12.14 234.03 L0 227.03 L0 240.87 L12.14 247.88 L12.14 234.03 Z" class="st1"/>
							</g>
						</g>
					</g>
					<g id="shape235-65" v:mID="235" v:groupContext="groupContent">
						<v:textBlock v:margins="rect(0,0,0,0)" v:tabSpace="42.5197" v:verticalAlign="0"/>
						<v:textRect cx="39.1181" cy="297.151" width="178.51" height="72.1905"/>
						<text x="26.51" y="269.16" class="st2" v:langID="2052"><v:paragraph v:horizAlign="1"/><v:tabList/>node1</text>					</g>
				</g>
				<g id="group244-67" transform="translate(26.5275,-171.615)" v:mID="244" v:groupContext="group">
					<title>Virtual Network.77</title>
					<desc>eth0 172.16.0.6</desc>
					<g id="shape245-68" v:mID="245" v:groupContext="shape" transform="translate(17.5312,0)">
						<title>Sheet.245</title>
						<path d="M7.65 241.06 L6.12 239.53 L0.83 234.23 L0 235.13 L5.93 241.06 L0 246.98 L0.83 247.88 L6.12 242.59
									 L7.65 241.06 Z" class="st3"/>
					</g>
					<g id="shape246-70" v:mID="246" v:groupContext="shape">
						<title>Sheet.246</title>
						<path d="M0 241.06 L1.53 239.53 L6.82 234.23 L7.65 235.13 L1.72 241.06 L7.65 246.98 L6.82 247.88 L1.53 242.59
									 L0 241.06 Z" class="st3"/>
					</g>
					<g id="shape247-72" v:mID="247" v:groupContext="shape" transform="translate(6.5025,-5.29125)">
						<title>Sheet.247</title>
						<path d="M3.06 246.35 C3.06 247.18 2.36 247.88 1.53 247.88 C0.64 247.88 0 247.18 0 246.35 C0 245.52 0.7 244.82
									 1.53 244.82 C2.36 244.82 3.06 245.45 3.06 246.35 Z" class="st3"/>
					</g>
					<g id="shape248-74" v:mID="248" v:groupContext="shape" transform="translate(11.0925,-5.29125)">
						<title>Sheet.248</title>
						<ellipse cx="1.53" cy="246.347" rx="1.53" ry="1.53" class="st3"/>
					</g>
					<g id="shape249-76" v:mID="249" v:groupContext="shape" transform="translate(15.6825,-5.29125)">
						<title>Sheet.249</title>
						<ellipse cx="1.53" cy="246.347" rx="1.53" ry="1.53" class="st3"/>
					</g>
					<g id="shape244-78" v:mID="244" v:groupContext="groupContent">
						<v:textBlock v:margins="rect(0,0,0,0)" v:tabSpace="42.5197" v:verticalAlign="0"/>
						<v:textRect cx="12.5906" cy="266.087" width="72" height="30.9375"/>
						<text x="3.74" y="258.72" class="st2" v:langID="2052"><v:paragraph v:horizAlign="1"/><v:tabList/>eth0<v:newlineChar/><tspan
									x="-7.32" dy="1.2em" class="st4">172.16.0.6</tspan></text>					</g>
				</g>
				<g id="group250-81" transform="translate(26.5275,0)" v:mID="250" v:groupContext="group">
					<title>Virtual Network</title>
					<desc>eth1</desc>
					<g id="shape251-82" v:mID="251" v:groupContext="shape" transform="translate(17.5312,0)">
						<title>Sheet.251</title>
						<path d="M7.65 241.06 L6.12 239.53 L0.83 234.23 L0 235.13 L5.93 241.06 L0 246.98 L0.83 247.88 L6.12 242.59
									 L7.65 241.06 Z" class="st3"/>
					</g>
					<g id="shape252-84" v:mID="252" v:groupContext="shape">
						<title>Sheet.252</title>
						<path d="M0 241.06 L1.53 239.53 L6.82 234.23 L7.65 235.13 L1.72 241.06 L7.65 246.98 L6.82 247.88 L1.53 242.59
									 L0 241.06 Z" class="st3"/>
					</g>
					<g id="shape253-86" v:mID="253" v:groupContext="shape" transform="translate(6.5025,-5.29125)">
						<title>Sheet.253</title>
						<path d="M3.06 246.35 C3.06 247.18 2.36 247.88 1.53 247.88 C0.64 247.88 0 247.18 0 246.35 C0 245.52 0.7 244.82
									 1.53 244.82 C2.36 244.82 3.06 245.45 3.06 246.35 Z" class="st3"/>
					</g>
					<g id="shape254-88" v:mID="254" v:groupContext="shape" transform="translate(11.0925,-5.29125)">
						<title>Sheet.254</title>
						<ellipse cx="1.53" cy="246.347" rx="1.53" ry="1.53" class="st3"/>
					</g>
					<g id="shape255-90" v:mID="255" v:groupContext="shape" transform="translate(15.6825,-5.29125)">
						<title>Sheet.255</title>
						<ellipse cx="1.53" cy="246.347" rx="1.53" ry="1.53" class="st3"/>
					</g>
					<g id="shape250-92" v:mID="250" v:groupContext="groupContent">
						<v:textBlock v:margins="rect(0,0,0,0)" v:tabSpace="42.5197" v:verticalAlign="0"/>
						<v:textRect cx="12.5906" cy="266.087" width="72" height="30.9375"/>
						<text x="3.74" y="258.72" class="st2" v:langID="2052"><v:paragraph v:horizAlign="1"/><v:tabList/>eth1</text>					</g>
				</g>
				<g id="shape256-94" v:mID="256" v:groupContext="shape" v:layerMember="0"
						transform="translate(1.43885E-13,-84.0687)">
					<title>Dynamic connector</title>
					<path d="M0 247.88 L-5.31 247.88 A5.31496 5.31496 -180 0 0 -10.63 253.19 L-10.63 304.92 A19.9075 19.9075 -180
								 0 0 9.28 324.83 L29.19 324.83" class="st5"/>
				</g>
				<g id="shape257-97" v:mID="257" v:groupContext="shape" v:layerMember="0"
						transform="translate(6.59472E-14,-93.9275)">
					<title>Dynamic connector.161</title>
					<path d="M0 247.88 L-5.31 247.88 A5.31496 5.31496 0 0 1 -10.63 242.56 L-10.63 181.49 A18.124 18.124 0 0 1 7.49
								 163.37 L25.62 163.37" class="st5"/>
				</g>
			</g>
			<g id="shape261-100" v:mID="261" v:groupContext="shape" transform="translate(0,-188.504)">
				<title>Virtual Network Box</title>
				<desc>Network: Management(172.16.0.0/16)</desc>
				<v:textBlock v:margins="rect(4,4,4,4)"/>
				<v:textRect cx="157.597" cy="223.782" width="315.2" height="48.189"/>
				<path d="M0 247.88 L315.19 247.88 L315.19 199.69 L0 199.69 L0 247.88 Z" class="st6"/>
				<rect v:rectContext="textBkgnd" x="82.7564" y="207.582" width="149.682" height="32.3998" class="st7"/>
				<text x="82.76" y="215.68" class="st2" v:langID="2052"><v:paragraph v:horizAlign="1"/><v:tabList/>Network: Management(172.16.0.0/16)<v:newlineChar/><v:newlineChar/></text>			</g>
			<g id="shape262-104" v:mID="262" v:groupContext="shape">
				<title>Virtual Network Box.262</title>
				<desc>NETWORK: K8S</desc>
				<v:textBlock v:margins="rect(4,4,4,4)"/>
				<v:textRect cx="157.597" cy="223.782" width="315.2" height="48.189"/>
				<path d="M0 247.88 L315.19 247.88 L315.19 199.69 L0 199.69 L0 247.88 Z" class="st6"/>
				<rect v:rectContext="textBkgnd" x="127.064" y="207.582" width="61.0664" height="32.3998" class="st8"/>
				<text x="127.06" y="237.28" class="st2" v:langID="2052"><v:paragraph v:horizAlign="1"/><v:tabList/><v:newlineChar/><v:newlineChar/>NETWORK: K8S</text>			</g>
			<g id="group210-108" transform="translate(113.386,-29.9103)" v:mID="210" v:groupContext="group">
				<title>Sheet.210</title>
				<g id="group211-109" transform="translate(7.99361E-15,-47.9734)" v:mID="211" v:groupContext="group">
					<title>Virtual Machine symbol only.68</title>
					<desc>node0</desc>
					<g id="shape212-110" v:mID="212" v:groupContext="shape">
						<title>Sheet.212</title>
						<path d="M73.51 175.69 L4.25 175.69 C1.89 175.69 0 177.79 0 180.13 L0 228.42 C0 230.76 1.89 232.83 4.25 232.83
									 L27.97 232.83 C30.52 241.86 27.08 243.15 12.03 243.15 L12.03 247.88 L31.16 247.88 L45.13 247.88
									 L63.19 247.88 L63.19 243.15 C48.15 243.15 46.66 241.86 49.22 232.83 L73.51 232.83 C75.85 232.83
									 78.24 230.76 78.24 228.42 L78.24 180.13 C78.24 177.79 75.85 175.69 73.51 175.69 ZM72.22 181.7
									 L72.22 226.82 L6.02 226.82 L6.02 181.7 L72.41 181.59 L72.22 181.7 Z" class="st1"/>
					</g>
					<g id="group213-112" transform="translate(24.9774,-28.9632)" v:mID="213" v:groupContext="group">
						<title>Sheet.213</title>
						<g id="group214-113" transform="translate(1.24113,-15.9266)" v:mID="214" v:groupContext="group">
							<title>Sheet.214</title>
							<g id="shape215-114" v:mID="215" v:groupContext="shape">
								<title>Sheet.215</title>
								<path d="M24.27 240.7 L12.13 233.7 L0 240.7 L0 240.87 L12.13 247.88 L24.27 240.87 L24.27 240.7 Z"
										class="st1"/>
							</g>
						</g>
						<g id="group216-116" transform="translate(14.6165,1.42109E-13)" v:mID="216" v:groupContext="group">
							<title>Sheet.216</title>
							<g id="shape217-117" v:mID="217" v:groupContext="shape">
								<title>Sheet.217</title>
								<path d="M0 234.03 L0 247.88 L12.14 240.87 L12.14 227.03 L0 234.03 Z" class="st1"/>
							</g>
						</g>
						<g id="group218-119" v:mID="218" v:groupContext="group">
							<title>Sheet.218</title>
							<g id="shape219-120" v:mID="219" v:groupContext="shape">
								<title>Sheet.219</title>
								<path d="M12.14 234.03 L0 227.03 L0 240.87 L12.14 247.88 L12.14 234.03 Z" class="st1"/>
							</g>
						</g>
					</g>
					<g id="shape211-122" v:mID="211" v:groupContext="groupContent">
						<v:textBlock v:margins="rect(0,0,0,0)" v:tabSpace="42.5197" v:verticalAlign="0"/>
						<v:textRect cx="39.1181" cy="297.151" width="178.51" height="72.1905"/>
						<text x="26.51" y="269.16" class="st2" v:langID="2052"><v:paragraph v:horizAlign="1"/><v:tabList/>node0</text>					</g>
				</g>
				<g id="group220-124" transform="translate(26.5275,-171.615)" v:mID="220" v:groupContext="group">
					<title>Virtual Network.77</title>
					<desc>eth0 172.16.0.5</desc>
					<g id="shape221-125" v:mID="221" v:groupContext="shape" transform="translate(17.5312,0)">
						<title>Sheet.221</title>
						<path d="M7.65 241.06 L6.12 239.53 L0.83 234.23 L0 235.13 L5.93 241.06 L0 246.98 L0.83 247.88 L6.12 242.59
									 L7.65 241.06 Z" class="st3"/>
					</g>
					<g id="shape222-127" v:mID="222" v:groupContext="shape">
						<title>Sheet.222</title>
						<path d="M0 241.06 L1.53 239.53 L6.82 234.23 L7.65 235.13 L1.72 241.06 L7.65 246.98 L6.82 247.88 L1.53 242.59
									 L0 241.06 Z" class="st3"/>
					</g>
					<g id="shape223-129" v:mID="223" v:groupContext="shape" transform="translate(6.5025,-5.29125)">
						<title>Sheet.223</title>
						<path d="M3.06 246.35 C3.06 247.18 2.36 247.88 1.53 247.88 C0.64 247.88 0 247.18 0 246.35 C0 245.52 0.7 244.82
									 1.53 244.82 C2.36 244.82 3.06 245.45 3.06 246.35 Z" class="st3"/>
					</g>
					<g id="shape224-131" v:mID="224" v:groupContext="shape" transform="translate(11.0925,-5.29125)">
						<title>Sheet.224</title>
						<ellipse cx="1.53" cy="246.347" rx="1.53" ry="1.53" class="st3"/>
					</g>
					<g id="shape225-133" v:mID="225" v:groupContext="shape" transform="translate(15.6825,-5.29125)">
						<title>Sheet.225</title>
						<ellipse cx="1.53" cy="246.347" rx="1.53" ry="1.53" class="st3"/>
					</g>
					<g id="shape220-135" v:mID="220" v:groupContext="groupContent">
						<v:textBlock v:margins="rect(0,0,0,0)" v:tabSpace="42.5197" v:verticalAlign="0"/>
						<v:textRect cx="12.5906" cy="266.087" width="72" height="30.9375"/>
						<text x="3.74" y="258.72" class="st2" v:langID="2052"><v:paragraph v:horizAlign="1"/><v:tabList/>eth0<v:newlineChar/><tspan
									x="-7.32" dy="1.2em" class="st4">172.16.0.5</tspan></text>					</g>
				</g>
				<g id="group226-138" transform="translate(26.5275,0)" v:mID="226" v:groupContext="group">
					<title>Virtual Network</title>
					<desc>eth1</desc>
					<g id="shape227-139" v:mID="227" v:groupContext="shape" transform="translate(17.5312,0)">
						<title>Sheet.227</title>
						<path d="M7.65 241.06 L6.12 239.53 L0.83 234.23 L0 235.13 L5.93 241.06 L0 246.98 L0.83 247.88 L6.12 242.59
									 L7.65 241.06 Z" class="st3"/>
					</g>
					<g id="shape228-141" v:mID="228" v:groupContext="shape">
						<title>Sheet.228</title>
						<path d="M0 241.06 L1.53 239.53 L6.82 234.23 L7.65 235.13 L1.72 241.06 L7.65 246.98 L6.82 247.88 L1.53 242.59
									 L0 241.06 Z" class="st3"/>
					</g>
					<g id="shape229-143" v:mID="229" v:groupContext="shape" transform="translate(6.5025,-5.29125)">
						<title>Sheet.229</title>
						<path d="M3.06 246.35 C3.06 247.18 2.36 247.88 1.53 247.88 C0.64 247.88 0 247.18 0 246.35 C0 245.52 0.7 244.82
									 1.53 244.82 C2.36 244.82 3.06 245.45 3.06 246.35 Z" class="st3"/>
					</g>
					<g id="shape230-145" v:mID="230" v:groupContext="shape" transform="translate(11.0925,-5.29125)">
						<title>Sheet.230</title>
						<ellipse cx="1.53" cy="246.347" rx="1.53" ry="1.53" class="st3"/>
					</g>
					<g id="shape231-147" v:mID="231" v:groupContext="shape" transform="translate(15.6825,-5.29125)">
						<title>Sheet.231</title>
						<ellipse cx="1.53" cy="246.347" rx="1.53" ry="1.53" class="st3"/>
					</g>
					<g id="shape226-149" v:mID="226" v:groupContext="groupContent">
						<v:textBlock v:margins="rect(0,0,0,0)" v:tabSpace="42.5197" v:verticalAlign="0"/>
						<v:textRect cx="12.5906" cy="266.087" width="72" height="30.9375"/>
						<text x="3.74" y="258.72" class="st2" v:langID="2052"><v:paragraph v:horizAlign="1"/><v:tabList/>eth1</text>					</g>
				</g>
				<g id="shape232-151" v:mID="232" v:groupContext="shape" v:layerMember="0"
						transform="translate(1.57874E-13,-84.0687)">
					<title>Dynamic connector</title>
					<path d="M0 247.88 L-5.31 247.88 A5.31496 5.31496 -180 0 0 -10.63 253.19 L-10.63 304.92 A19.9075 19.9075 -180
								 0 0 9.28 324.83 L29.19 324.83" class="st5"/>
				</g>
				<g id="shape233-154" v:mID="233" v:groupContext="shape" v:layerMember="0"
						transform="translate(6.59472E-14,-93.9275)">
					<title>Dynamic connector.161</title>
					<path d="M0 247.88 L-5.31 247.88 A5.31496 5.31496 0 0 1 -10.63 242.56 L-10.63 181.49 A18.124 18.124 0 0 1 7.49
								 163.37 L25.62 163.37" class="st5"/>
				</g>
			</g>
		</g>
	</g>
</svg>
