<?xml version="1.0" encoding="UTF-8" standalone="no"?>
<!DOCTYPE svg PUBLIC "-//W3C//DTD SVG 1.1//EN" "http://www.w3.org/Graphics/SVG/1.1/DTD/svg11.dtd">
<!-- Generated by Microsoft Visio, SVG Export LB_SNAT.svg Page-1 -->
<svg xmlns="http://www.w3.org/2000/svg" xmlns:xlink="http://www.w3.org/1999/xlink" xmlns:ev="http://www.w3.org/2001/xml-events"
		xmlns:v="http://schemas.microsoft.com/visio/2003/SVGExtensions/" width="4.14547in" height="2.33052in"
		viewBox="0 0 298.474 167.798" xml:space="preserve" color-interpolation-filters="sRGB" class="st14">
	<v:documentProperties v:langID="1033" v:metric="true" v:viewMarkup="false"/>

	<style type="text/css">
	<![CDATA[
		.st1 {fill:#0078d7;stroke:none;stroke-linecap:butt;stroke-width:0.653846}
		.st2 {fill:#0078d7;font-family:Calibri;font-size:0.75em}
		.st3 {font-size:1em}
		.st4 {fill:#ffffff;stroke:#ffffff;stroke-linecap:butt;stroke-width:1.5}
		.st5 {fill:#0078d7;stroke:none;stroke-linecap:butt;stroke-width:0.75}
		.st6 {stroke:#0070c0;stroke-linecap:round;stroke-linejoin:round;stroke-width:0.75}
		.st7 {marker-end:url(#mrkr7-90);marker-start:url(#mrkr7-88);stroke:#0070c0;stroke-linecap:round;stroke-linejoin:round;stroke-width:0.75}
		.st8 {fill:#0070c0;fill-opacity:1;stroke:#0070c0;stroke-opacity:1;stroke-width:0.22935779816514}
		.st9 {marker-start:url(#mrkr7-96);stroke:#0070c0;stroke-linecap:round;stroke-linejoin:round;stroke-width:1}
		.st10 {fill:#0070c0;fill-opacity:1;stroke:#0070c0;stroke-opacity:1;stroke-width:0.28409090909091}
		.st11 {fill:#ffffff;stroke:none;stroke-linecap:butt;stroke-width:7.2}
		.st12 {fill:#0070c0;font-family:Calibri;font-size:0.75em}
		.st13 {fill:none;stroke:none;stroke-linecap:round;stroke-linejoin:round;stroke-width:0.75}
		.st14 {fill:none;fill-rule:evenodd;font-size:12px;overflow:visible;stroke-linecap:square;stroke-miterlimit:3}
	]]>
	</style>

	<defs id="Markers">
		<g id="lend7">
			<path
					d="M 1.84309 -0.959456 C 1.43792 -0.380801 0.784503 -0.0260255 0.078527 -0.00137091 L 0.0785229 0.00137043 C 0.784499 0.0260231 1.43791 0.380798 1.84309 0.959452 "
					style="stroke-linecap:round;stroke-linejoin:round;fill:none"/>
		</g>
		<marker id="mrkr7-88" class="st8" v:arrowType="7" v:arrowSize="2" orient="auto" markerUnits="strokeWidth"
				overflow="visible">
			<use xlink:href="#lend7" transform="scale(4.36) "/>
		</marker>
		<marker id="mrkr7-90" class="st8" v:arrowType="7" v:arrowSize="2" orient="auto" markerUnits="strokeWidth"
				overflow="visible">
			<use xlink:href="#lend7" transform="scale(-4.36,-4.36) "/>
		</marker>
		<marker id="mrkr7-96" class="st10" v:arrowType="7" v:arrowSize="2" orient="auto" markerUnits="strokeWidth"
				overflow="visible">
			<use xlink:href="#lend7" transform="scale(3.52) "/>
		</marker>
	</defs>
	<g v:mID="0" v:index="1" v:groupContext="foregroundPage">
		<title>Page-1</title>
		<v:pageProperties v:drawingScale="0.0393701" v:pageScale="0.0393701" v:drawingUnits="24" v:shadowOffsetX="8.50394"
				v:shadowOffsetY="-8.50394"/>
		<v:layer v:name="Connector" v:index="0"/>
		<v:layer v:name="Azure" v:index="1"/>
		<g id="group1-1" transform="translate(107.466,-83.4272)" v:mID="1" v:groupContext="group">
			<title>Azure load balancer</title>
			<desc>Azure load balancer</desc>
			<g id="group2-2" transform="translate(0.588462,-0.523077)" v:mID="2" v:groupContext="group">
				<title>Sheet.2</title>
				<g id="shape3-3" v:mID="3" v:groupContext="shape">
					<title>Sheet.3</title>
					<path d="M31.91 149.23 L18.57 135.89 C17.98 135.3 17.26 134.97 16.41 134.97 C15.63 134.97 14.84 135.3 14.25 135.89
								 L0.92 149.23 C0.33 149.82 0 150.54 0 151.39 C0 152.17 0.33 152.96 0.92 153.54 L14.25 166.88 C14.84
								 167.47 15.56 167.8 16.41 167.8 C17.2 167.8 17.98 167.47 18.57 166.88 L31.91 153.54 C32.5 152.96
								 32.82 152.24 32.82 151.39 C32.76 150.54 32.43 149.75 31.91 149.23 ZM25.57 155.44 L25.57 152.43 L20.99
								 152.43 C20.53 154 19.29 155.24 17.72 155.7 L17.72 158.77 C18.37 159.23 19.35 160.28 19.35 161.39
								 C19.35 163.02 18.05 164.33 16.41 164.33 C14.78 164.33 13.47 163.02 13.47 161.39 C13.47 160.21 14.45
								 159.23 15.1 158.77 L15.1 155.77 C13.53 155.31 12.29 154.07 11.83 152.5 L7.26 152.5 L7.26 155.57
								 L2.94 151.26 L7.26 146.94 L7.26 149.95 L11.83 149.95 C12.29 148.38 13.53 147.14 15.1 146.68 L15.1
								 142.3 L12.1 142.3 L16.41 137.98 L20.73 142.3 L17.72 142.3 L17.72 146.68 C19.29 147.14 20.53 148.38
								 20.99 149.95 L25.57 149.95 L25.57 146.87 L29.88 151.19 L25.57 155.44 Z" class="st1"/>
				</g>
				<g id="shape4-5" v:mID="4" v:groupContext="shape" transform="translate(12.9462,-13.2077)">
					<title>Sheet.4</title>
					<path d="M3.47 160.87 C1.57 160.87 0 162.44 0 164.33 C0 166.23 1.57 167.8 3.47 167.8 C5.36 167.8 6.93 166.23
								 6.93 164.33 C6.93 162.44 5.36 160.87 3.47 160.87 Z" class="st1"/>
				</g>
			</g>
			<g id="shape1-7" v:mID="1" v:groupContext="groupContent">
				<v:textBlock v:margins="rect(0,0,0,0)" v:tabSpace="42.5197" v:verticalAlign="0"/>
				<v:textRect cx="17" cy="188.048" width="54" height="34"/>
				<text x="-2.5" y="179.15" class="st2" v:langID="1033"><v:paragraph v:horizAlign="1"/><v:tabList/>Azure load <tspan
							x="1.22" dy="1.2em" class="st3">balancer</tspan></text>			</g>
		</g>
		<g id="group5-10" transform="translate(19.6837,-140.12)" v:mID="5" v:groupContext="group">
			<title>Virtual machine (opaque)</title>
			<desc>Backend Instance - 1</desc>
			<g id="shape6-11" v:mID="6" v:groupContext="shape">
				<title>Sheet.6</title>
				<path d="M31.19 141.69 L1.44 141.69 C0.65 141.69 0 142.34 0 143.13 L0 166.36 C0 167.16 0.65 167.8 1.44 167.8 L31.19
							 167.8 C31.99 167.8 32.63 167.16 32.63 166.36 L32.63 143.13 C32.63 142.34 31.99 141.69 31.19 141.69 Z"
						class="st4"/>
			</g>
			<g id="group7-13" v:mID="7" v:groupContext="group">
				<title>Sheet.7</title>
				<g id="shape8-14" v:mID="8" v:groupContext="shape" transform="translate(10.6837,-11.7195)">
					<title>Sheet.8</title>
					<path d="M0 167.8 L12.32 167.8 L12.32 159.54 L0 159.54 L0 167.8 ZM8.87 165.39 L6.56 166.73 L6.56 164.06 L8.87
								 162.72 L8.87 165.39 ZM6.35 161 L8.66 162.35 L6.36 163.68 L4.04 162.34 L6.35 161 ZM3.81 162.71 L6.13
								 164.04 L6.13 166.72 L3.81 165.39 L3.81 162.71 Z" class="st5"/>
				</g>
				<g id="shape9-16" v:mID="9" v:groupContext="shape">
					<title>Sheet.9</title>
					<path d="M31.19 141.69 L1.44 141.69 C0.65 141.69 0 142.34 0 143.13 L0 166.36 C0 167.16 0.65 167.8 1.44 167.8
								 L31.19 167.8 C31.99 167.8 32.63 167.16 32.63 166.36 L32.63 143.13 C32.63 142.34 31.99 141.69 31.19
								 141.69 ZM16.21 163.3 L15.3 166 C15.29 166.03 15.28 166.05 15.27 166.07 C15.26 166.08 15.24 166.1
								 15.21 166.1 C15.18 166.11 15.14 166.12 15.1 166.12 C15.05 166.12 14.98 166.12 14.9 166.12 C14.84
								 166.12 14.79 166.12 14.74 166.12 C14.7 166.12 14.66 166.12 14.63 166.12 C14.6 166.11 14.57 166.11
								 14.55 166.1 C14.53 166.1 14.52 166.09 14.5 166.08 C14.49 166.07 14.48 166.06 14.47 166.05 C14.47
								 166.03 14.46 166.02 14.45 166 L13.55 163.3 C13.53 163.24 13.52 163.2 13.51 163.16 C13.51 163.13
								 13.52 163.11 13.54 163.09 C13.56 163.07 13.59 163.06 13.64 163.06 C13.68 163.06 13.75 163.05 13.83
								 163.05 C13.91 163.05 13.96 163.06 14 163.06 C14.04 163.06 14.08 163.07 14.1 163.07 C14.12 163.08
								 14.13 163.09 14.14 163.11 C14.15 163.13 14.16 163.15 14.17 163.17 L14.91 165.51 L14.91 165.51 L15.64
								 163.18 C15.64 163.15 15.65 163.13 15.66 163.12 C15.67 163.1 15.68 163.09 15.71 163.08 C15.73 163.07
								 15.76 163.06 15.8 163.06 C15.85 163.06 15.9 163.05 15.98 163.05 C16.05 163.05 16.11 163.06 16.15
								 163.06 C16.19 163.07 16.21 163.08 16.23 163.1 C16.24 163.11 16.25 163.14 16.24 163.17 C16.24 163.21
								 16.23 163.25 16.21 163.3 ZM20.18 166.03 C20.18 166.04 20.18 166.06 20.17 166.07 C20.16 166.08 20.14
								 166.09 20.12 166.1 C20.1 166.11 20.07 166.11 20.03 166.12 C19.99 166.12 19.94 166.13 19.89 166.13
								 C19.83 166.13 19.78 166.12 19.74 166.12 C19.71 166.11 19.68 166.11 19.66 166.1 C19.63 166.09 19.62
								 166.08 19.61 166.07 C19.6 166.06 19.59 166.04 19.59 166.03 L19.59 163.55 L19.59 163.55 L18.71 166.02
								 C18.7 166.04 18.69 166.06 18.68 166.07 C18.66 166.09 18.64 166.1 18.62 166.11 C18.6 166.11 18.56
								 166.12 18.53 166.12 C18.49 166.12 18.44 166.13 18.39 166.13 C18.34 166.13 18.29 166.12 18.25 166.12
								 C18.22 166.12 18.18 166.11 18.16 166.1 C18.14 166.09 18.12 166.08 18.1 166.07 C18.09 166.06 18.08
								 166.04 18.07 166.02 L17.22 163.55 L17.22 163.55 L17.22 166.03 C17.22 166.04 17.21 166.06 17.21 166.07
								 C17.2 166.08 17.18 166.09 17.16 166.1 C17.13 166.11 17.1 166.11 17.07 166.12 C17.03 166.12 16.98
								 166.13 16.92 166.13 C16.87 166.13 16.82 166.12 16.78 166.12 C16.75 166.11 16.72 166.11 16.69 166.1
								 C16.67 166.09 16.65 166.08 16.65 166.07 C16.64 166.06 16.63 166.04 16.63 166.03 L16.63 163.32 C16.63
								 163.24 16.65 163.17 16.7 163.13 C16.74 163.09 16.79 163.07 16.87 163.07 L17.27 163.07 C17.34 163.07
								 17.4 163.07 17.46 163.09 C17.51 163.1 17.55 163.12 17.59 163.15 C17.63 163.17 17.66 163.21 17.68
								 163.25 C17.71 163.3 17.73 163.35 17.75 163.42 L18.41 165.23 L18.42 165.23 L19.1 163.42 C19.12 163.36
								 19.14 163.3 19.17 163.26 C19.19 163.21 19.22 163.17 19.25 163.15 C19.28 163.12 19.32 163.1 19.36
								 163.09 C19.41 163.08 19.46 163.07 19.52 163.07 L19.93 163.07 C19.98 163.07 20.01 163.07 20.04 163.09
								 C20.07 163.1 20.1 163.11 20.12 163.13 C20.14 163.15 20.15 163.18 20.16 163.21 C20.17 163.24 20.18
								 163.28 20.18 163.32 L20.18 166.03 L20.18 166.03 ZM24.01 156.3 C24.01 156.73 23.67 157.08 23.23 157.08
								 L18.75 157.08 C18.32 158.83 18.52 159.05 21.55 159.05 L21.55 159.77 L18.02 159.77 L15.45 159.77
								 L12.14 159.77 L12.14 159.05 C14.86 159.05 15.31 158.83 14.88 157.08 L10.46 157.08 C10.03 157.08
								 9.68 156.73 9.68 156.3 L9.68 147.6 C9.68 147.16 10.03 146.81 10.46 146.81 L23.23 146.81 C23.67 146.81
								 24.01 147.16 24.01 147.6 L24.01 156.3 L24.01 156.3 Z" class="st5"/>
				</g>
			</g>
			<g id="shape5-18" v:mID="5" v:groupContext="groupContent">
				<v:textBlock v:margins="rect(0,0,0,0)" v:verticalAlign="0"/>
				<v:textRect cx="16.3163" cy="186.692" width="72" height="31.5"/>
				<text x="-18.04" y="179.04" class="st2" v:langID="2052"><v:paragraph v:horizAlign="1"/><v:tabList/>Backend Instance - <tspan
							x="14.04" dy="1.2em" class="st3">1</tspan></text>			</g>
		</g>
		<g id="group10-21" transform="translate(20.3754,-34.6448)" v:mID="10" v:groupContext="group">
			<title>Virtual machine (opaque).10</title>
			<desc>Backend Instance - N</desc>
			<g id="shape11-22" v:mID="11" v:groupContext="shape">
				<title>Sheet.11</title>
				<path d="M31.19 141.69 L1.44 141.69 C0.65 141.69 0 142.34 0 143.13 L0 166.36 C0 167.16 0.65 167.8 1.44 167.8 L31.19
							 167.8 C31.99 167.8 32.63 167.16 32.63 166.36 L32.63 143.13 C32.63 142.34 31.99 141.69 31.19 141.69 Z"
						class="st4"/>
			</g>
			<g id="group12-24" v:mID="12" v:groupContext="group">
				<title>Sheet.12</title>
				<g id="shape13-25" v:mID="13" v:groupContext="shape" transform="translate(10.6837,-11.7195)">
					<title>Sheet.13</title>
					<path d="M0 167.8 L12.32 167.8 L12.32 159.54 L0 159.54 L0 167.8 ZM8.87 165.39 L6.56 166.73 L6.56 164.06 L8.87
								 162.72 L8.87 165.39 ZM6.35 161 L8.66 162.35 L6.36 163.68 L4.04 162.34 L6.35 161 ZM3.81 162.71 L6.13
								 164.04 L6.13 166.72 L3.81 165.39 L3.81 162.71 Z" class="st5"/>
				</g>
				<g id="shape14-27" v:mID="14" v:groupContext="shape">
					<title>Sheet.14</title>
					<path d="M31.19 141.69 L1.44 141.69 C0.65 141.69 0 142.34 0 143.13 L0 166.36 C0 167.16 0.65 167.8 1.44 167.8
								 L31.19 167.8 C31.99 167.8 32.63 167.16 32.63 166.36 L32.63 143.13 C32.63 142.34 31.99 141.69 31.19
								 141.69 ZM16.21 163.3 L15.3 166 C15.29 166.03 15.28 166.05 15.27 166.07 C15.26 166.08 15.24 166.1
								 15.21 166.1 C15.18 166.11 15.14 166.12 15.1 166.12 C15.05 166.12 14.98 166.12 14.9 166.12 C14.84
								 166.12 14.79 166.12 14.74 166.12 C14.7 166.12 14.66 166.12 14.63 166.12 C14.6 166.11 14.57 166.11
								 14.55 166.1 C14.53 166.1 14.52 166.09 14.5 166.08 C14.49 166.07 14.48 166.06 14.47 166.05 C14.47
								 166.03 14.46 166.02 14.45 166 L13.55 163.3 C13.53 163.24 13.52 163.2 13.51 163.16 C13.51 163.13
								 13.52 163.11 13.54 163.09 C13.56 163.07 13.59 163.06 13.64 163.06 C13.68 163.06 13.75 163.05 13.83
								 163.05 C13.91 163.05 13.96 163.06 14 163.06 C14.04 163.06 14.08 163.07 14.1 163.07 C14.12 163.08
								 14.13 163.09 14.14 163.11 C14.15 163.13 14.16 163.15 14.17 163.17 L14.91 165.51 L14.91 165.51 L15.64
								 163.18 C15.64 163.15 15.65 163.13 15.66 163.12 C15.67 163.1 15.68 163.09 15.71 163.08 C15.73 163.07
								 15.76 163.06 15.8 163.06 C15.85 163.06 15.9 163.05 15.98 163.05 C16.05 163.05 16.11 163.06 16.15
								 163.06 C16.19 163.07 16.21 163.08 16.23 163.1 C16.24 163.11 16.25 163.14 16.24 163.17 C16.24 163.21
								 16.23 163.25 16.21 163.3 ZM20.18 166.03 C20.18 166.04 20.18 166.06 20.17 166.07 C20.16 166.08 20.14
								 166.09 20.12 166.1 C20.1 166.11 20.07 166.11 20.03 166.12 C19.99 166.12 19.94 166.13 19.89 166.13
								 C19.83 166.13 19.78 166.12 19.74 166.12 C19.71 166.11 19.68 166.11 19.66 166.1 C19.63 166.09 19.62
								 166.08 19.61 166.07 C19.6 166.06 19.59 166.04 19.59 166.03 L19.59 163.55 L19.59 163.55 L18.71 166.02
								 C18.7 166.04 18.69 166.06 18.68 166.07 C18.66 166.09 18.64 166.1 18.62 166.11 C18.6 166.11 18.56
								 166.12 18.53 166.12 C18.49 166.12 18.44 166.13 18.39 166.13 C18.34 166.13 18.29 166.12 18.25 166.12
								 C18.22 166.12 18.18 166.11 18.16 166.1 C18.14 166.09 18.12 166.08 18.1 166.07 C18.09 166.06 18.08
								 166.04 18.07 166.02 L17.22 163.55 L17.22 163.55 L17.22 166.03 C17.22 166.04 17.21 166.06 17.21 166.07
								 C17.2 166.08 17.18 166.09 17.16 166.1 C17.13 166.11 17.1 166.11 17.07 166.12 C17.03 166.12 16.98
								 166.13 16.92 166.13 C16.87 166.13 16.82 166.12 16.78 166.12 C16.75 166.11 16.72 166.11 16.69 166.1
								 C16.67 166.09 16.65 166.08 16.65 166.07 C16.64 166.06 16.63 166.04 16.63 166.03 L16.63 163.32 C16.63
								 163.24 16.65 163.17 16.7 163.13 C16.74 163.09 16.79 163.07 16.87 163.07 L17.27 163.07 C17.34 163.07
								 17.4 163.07 17.46 163.09 C17.51 163.1 17.55 163.12 17.59 163.15 C17.63 163.17 17.66 163.21 17.68
								 163.25 C17.71 163.3 17.73 163.35 17.75 163.42 L18.41 165.23 L18.42 165.23 L19.1 163.42 C19.12 163.36
								 19.14 163.3 19.17 163.26 C19.19 163.21 19.22 163.17 19.25 163.15 C19.28 163.12 19.32 163.1 19.36
								 163.09 C19.41 163.08 19.46 163.07 19.52 163.07 L19.93 163.07 C19.98 163.07 20.01 163.07 20.04 163.09
								 C20.07 163.1 20.1 163.11 20.12 163.13 C20.14 163.15 20.15 163.18 20.16 163.21 C20.17 163.24 20.18
								 163.28 20.18 163.32 L20.18 166.03 L20.18 166.03 ZM24.01 156.3 C24.01 156.73 23.67 157.08 23.23 157.08
								 L18.75 157.08 C18.32 158.83 18.52 159.05 21.55 159.05 L21.55 159.77 L18.02 159.77 L15.45 159.77
								 L12.14 159.77 L12.14 159.05 C14.86 159.05 15.31 158.83 14.88 157.08 L10.46 157.08 C10.03 157.08
								 9.68 156.73 9.68 156.3 L9.68 147.6 C9.68 147.16 10.03 146.81 10.46 146.81 L23.23 146.81 C23.67 146.81
								 24.01 147.16 24.01 147.6 L24.01 156.3 L24.01 156.3 Z" class="st5"/>
				</g>
			</g>
			<g id="shape10-29" v:mID="10" v:groupContext="groupContent">
				<v:textBlock v:margins="rect(0,0,0,0)" v:verticalAlign="0"/>
				<v:textRect cx="16.3163" cy="186.692" width="72" height="31.5"/>
				<text x="-18.04" y="179.04" class="st2" v:langID="2052"><v:paragraph v:horizAlign="1"/><v:tabList/>Backend Instance - <tspan
							x="13.41" dy="1.2em" class="st3">N</tspan></text>			</g>
		</g>
		<g id="group15-32" transform="translate(246.455,-86.2503)" v:mID="15" v:groupContext="group">
			<title>Web App (was websites)</title>
			<desc>Remote Service</desc>
			<g id="group16-33" v:mID="16" v:groupContext="group">
				<title>Sheet.16</title>
				<g id="shape17-34" v:mID="17" v:groupContext="shape">
					<title>Sheet.17</title>
					<path d="M23.51 163.41 C21.28 165.12 18.64 165.96 16.03 165.96 C12.31 165.96 8.65 164.29 6.22 161.12 C2.08 155.7
								 3.1 147.97 8.52 143.81 C10.76 142.1 13.39 141.28 16.01 141.28 C19.72 141.28 23.39 142.94 25.82 146.12
								 C29.96 151.52 28.93 159.27 23.51 163.41 ZM27.28 144.99 C24.49 141.34 20.27 139.43 16.01 139.43 C13.01
								 139.43 9.96 140.38 7.39 142.35 C1.18 147.12 -0 156.02 4.76 162.24 C7.55 165.89 11.77 167.8 16.03
								 167.8 C19.04 167.8 22.07 166.85 24.64 164.88 C30.86 160.11 32.04 151.21 27.28 144.99 Z"
							class="st5"/>
				</g>
			</g>
			<g id="group18-36" transform="translate(5.09156,-4.39894)" v:mID="18" v:groupContext="group">
				<title>Sheet.18</title>
				<g id="group19-37" transform="translate(0.351188,-0.176625)" v:mID="19" v:groupContext="group">
					<title>Sheet.19</title>
					<g id="group20-38" transform="translate(0.44925,3.41061E-13)" v:mID="20" v:groupContext="group">
						<title>Sheet.20</title>
						<g id="shape21-39" v:mID="21" v:groupContext="shape">
							<title>Sheet.21</title>
							<path d="M3.72 160.77 C2.9 159.95 2.24 159.17 1.71 158.41 C0.52 160.83 0.1 163.32 0 165.3 C0.12 165.46
										 0.12 165.59 0.23 165.75 C0.83 166.5 1.57 167.22 2.29 167.8 C2.18 166.17 2.34 163.52 3.72
										 160.77 Z" class="st5"/>
						</g>
					</g>
					<g id="shape22-41" v:mID="22" v:groupContext="shape" transform="translate(3.3825,-8.98425)">
						<title>Sheet.22</title>
						<path d="M5.07 160.3 C3.96 161.07 2.81 162.05 1.66 163.28 C1.02 163.95 0.48 164.63 0 165.33 C0.49 166.12
									 1.14 166.94 1.95 167.8 C2.56 166.94 3.31 166.07 4.21 165.23 C5.35 164.16 6.42 163.31 7.43 162.62
									 C6.6 161.86 5.81 161.09 5.07 160.3 Z" class="st5"/>
					</g>
					<g id="group23-43" transform="translate(10.2079,-15.2081)" v:mID="23" v:groupContext="group">
						<title>Sheet.23</title>
						<g id="shape24-44" v:mID="24" v:groupContext="shape">
							<title>Sheet.24</title>
							<path d="M10.04 165.72 C9.5 165.04 8.9 164.44 8.26 163.9 C6.35 163.6 3.39 163.64 0 165.44 C0.78 166.27
										 1.55 167.06 2.3 167.8 C6.82 165.36 10.04 165.72 10.04 165.72 Z" class="st5"/>
						</g>
					</g>
					<g id="group25-46" transform="translate(1.1291E-13,-9.38775)" v:mID="25" v:groupContext="group">
						<title>Sheet.25</title>
						<g id="shape26-47" v:mID="26" v:groupContext="shape">
							<title>Sheet.26</title>
							<path d="M2.16 167.8 C2.5 167.11 2.91 166.42 3.38 165.73 C1.44 162.66 1.53 160.12 1.74 158.93 C1.26 159.44
										 0.8 159.97 0.41 160.54 C0.02 162.15 0 164.71 2.16 167.8 Z" class="st5"/>
						</g>
					</g>
					<g id="group27-49" transform="translate(4.16269,-0.740812)" v:mID="27" v:groupContext="group">
						<title>Sheet.27</title>
						<g id="shape28-50" v:mID="28" v:groupContext="shape">
							<title>Sheet.28</title>
							<path d="M3.51 161.69 C2.6 160.97 1.83 160.25 1.17 159.55 C0.7 160.2 0.32 160.86 0 161.5 C0.62 162.13
										 1.33 162.76 2.14 163.41 C7.2 167.42 12.23 167.8 15.05 167.8 C15.24 167.8 16.12 166.6 16.63
										 165.86 C15.37 166.11 9.97 166.8 3.51 161.69 Z" class="st5"/>
						</g>
					</g>
					<g id="group29-52" transform="translate(2.16112,-7.03612)" v:mID="29" v:groupContext="group">
						<title>Sheet.29</title>
						<g id="shape30-53" v:mID="30" v:groupContext="shape">
							<title>Sheet.30</title>
							<path d="M0 165.45 C0.53 166.21 1.18 166.99 2 167.8 C2.32 167.15 2.71 166.5 3.17 165.85 C2.36 164.99
										 1.72 164.17 1.22 163.38 C0.74 164.06 0.34 164.76 0 165.45 Z" class="st5"/>
						</g>
					</g>
					<g id="group31-55" transform="translate(10.8082,-5.32762)" v:mID="31" v:groupContext="group">
						<title>Sheet.31</title>
						<g id="shape32-56" v:mID="32" v:groupContext="shape">
							<title>Sheet.32</title>
							<path d="M0 158.97 C4.61 163.23 10.07 166.85 11.46 167.8 C11.6 167.45 11.69 167.1 11.79 166.74 C10.3
										 165.64 6.39 162.58 1.7 157.92 C1.16 158.21 0.59 158.56 0 158.97 Z" class="st5"/>
						</g>
					</g>
					<g id="group33-58" transform="translate(5.12419,-16.4848)" v:mID="33" v:groupContext="group">
						<title>Sheet.33</title>
						<g id="shape34-59" v:mID="34" v:groupContext="shape">
							<title>Sheet.34</title>
							<path d="M5.08 166.71 C3.95 165.53 2.81 164.26 1.63 162.91 C1.07 163.08 0.53 163.31 0 163.57 C0.86 164.98
										 2.03 166.41 3.33 167.8 C3.93 167.38 4.5 167.02 5.08 166.71 Z" class="st5"/>
						</g>
					</g>
					<g id="shape35-61" v:mID="35" v:groupContext="shape" transform="translate(8.361,-14.0617)">
						<title>Sheet.35</title>
						<path d="M1.92 164.25 C1.34 164.56 0.59 165.02 0 165.44 C0.74 166.23 1.49 167.04 2.31 167.8 C2.9 167.4 3.69
									 166.91 4.23 166.61 C3.48 165.88 2.7 165.09 1.92 164.25 Z" class="st5"/>
					</g>
					<g id="shape36-63" v:mID="36" v:groupContext="shape" transform="translate(8.36025,-14.0152)">
						<title>Sheet.36</title>
						<path d="M1.71 164.1 C1.13 164.41 0.59 164.81 0 165.23 C0.74 166.01 1.79 167.04 2.61 167.8 C3.2 167.4 3.69
									 166.99 4.23 166.69 C3.48 165.96 2.49 164.93 1.71 164.1 Z" class="st5"/>
					</g>
				</g>
				<g id="group37-65" transform="translate(15.2696,-6.24169)" v:mID="37" v:groupContext="group">
					<title>Sheet.37</title>
					<g id="shape38-66" v:mID="38" v:groupContext="shape">
						<title>Sheet.38</title>
						<path d="M1.38 162.71 C0.23 163.59 0 165.26 0.89 166.42 C1.78 167.59 3.45 167.8 4.61 166.92 C5.77 166.03
									 5.99 164.37 5.11 163.2 C4.21 162.05 2.55 161.81 1.38 162.71 Z" class="st5"/>
					</g>
				</g>
				<g id="group39-68" transform="translate(9.9159,-1.98952E-13)" v:mID="39" v:groupContext="group">
					<title>Sheet.39</title>
					<g id="shape40-69" v:mID="40" v:groupContext="shape">
						<title>Sheet.40</title>
						<path d="M1.27 163.08 C0.2 163.91 0 165.45 0.81 166.52 C1.64 167.6 3.18 167.8 4.26 166.98 C5.33 166.16 5.53
									 164.62 4.71 163.55 C3.89 162.47 2.35 162.26 1.27 163.08 Z" class="st5"/>
					</g>
				</g>
				<g id="group41-71" transform="translate(0,-5.36869)" v:mID="41" v:groupContext="group">
					<title>Sheet.41</title>
					<g id="shape42-72" v:mID="42" v:groupContext="shape">
						<title>Sheet.42</title>
						<path d="M1.94 160.63 C0.31 161.89 0 164.21 1.25 165.85 C2.5 167.49 4.85 167.8 6.48 166.54 C8.11 165.29 8.42
									 162.96 7.17 161.31 C5.92 159.69 3.57 159.38 1.94 160.63 Z" class="st5"/>
					</g>
				</g>
			</g>
			<g id="shape15-74" v:mID="15" v:groupContext="groupContent">
				<v:textBlock v:margins="rect(0,0,0,0)" v:tabSpace="42.5197" v:verticalAlign="0"/>
				<v:textRect cx="16.0185" cy="185.675" width="72" height="31.5"/>
				<text x="-12.48" y="178.03" class="st2" v:langID="2052"><v:paragraph v:horizAlign="1"/><v:tabList/>Remote Service</text>			</g>
		</g>
		<g id="shape44-76" v:mID="44" v:groupContext="shape" v:layerMember="0" transform="translate(53.4375,-153.173)">
			<title>Dynamic connector</title>
			<path d="M0 167.8 L71.03 167.8 L71.03 203.54" class="st6"/>
		</g>
		<g id="shape45-79" v:mID="45" v:groupContext="shape" v:layerMember="0" transform="translate(54.1291,-47.6974)">
			<title>Dynamic connector.45</title>
			<path d="M0 167.8 L70.34 167.8 L70.34 132.07" class="st6"/>
		</g>
		<g id="shape47-82" v:mID="47" v:groupContext="shape" v:layerMember="0" transform="translate(141.466,-93.3445)">
			<title>Dynamic connector.47</title>
			<path d="M0 160.72 L105.26 160.71" class="st7"/>
		</g>
		<g id="shape51-91" v:mID="51" v:groupContext="shape" v:layerMember="0;1"
				transform="translate(259.07,-115.026) rotate(-1.16236) scale(-1,1)">
			<title>Arrow Arc</title>
			<desc>Outbound Connection (Src IP, Src SNAT Port) -&#62; (Dest IP, Dest...</desc>
			<v:userDefs>
				<v:ud v:nameU="Scale" v:val="VT0(1):26"/>
				<v:ud v:nameU="AntiScale" v:val="VT0(1):26"/>
				<v:ud v:nameU="visVersion" v:val="VT0(15):26"/>
			</v:userDefs>
			<v:textBlock v:margins="rect(4,4,4,4)" v:tabSpace="42.5197"/>
			<v:textRect cx="97.92" cy="139.437" width="170.72" height="29.6036" transform="rotate(1.16236)"/>
			<path d="M0 167.8 A182.404 182.404 0 0 1 195.37 167.8" class="st9"/>
			<rect v:rectContext="textBkgnd" x="14.7305" y="130.595" width="160.682" height="21.5997" transform="rotate(-1.16236)"
					class="st11"/>
			<text x="-135.69" y="138.69" transform="rotate(-1.16236) scale(-1,1)" class="st12" v:langID="2052"><v:paragraph
						v:horizAlign="1"/><v:tabList/>Outbound Connection<v:lf/><tspan x="-175.41" dy="1.2em" class="st3">(Src IP, Src SNAT Port) </tspan>-&#62; (Dest IP, Dest Port)</text>		</g>
		<g id="shape52-100" v:mID="52" v:groupContext="shape" transform="translate(25.353,-77.7579)">
			<title>Sheet.52</title>
			<desc>...</desc>
			<v:textBlock v:margins="rect(4,4,4,4)" v:tabSpace="42.5197"/>
			<v:textRect cx="19.8425" cy="157.876" width="39.69" height="19.8425"/>
			<rect x="0" y="147.955" width="39.685" height="19.8425" class="st13"/>
			<text x="16.43" y="160.58" class="st12" v:langID="2052"><v:paragraph v:horizAlign="1"/><v:tabList/>...</text>		</g>
	</g>
</svg>
